<?xml version="1.0" encoding="UTF-8" standalone="no"?>
<!-- Created with Inkscape (http://www.inkscape.org/) -->

<svg
   xmlns:dc="http://purl.org/dc/elements/1.1/"
   xmlns:cc="http://creativecommons.org/ns#"
   xmlns:rdf="http://www.w3.org/1999/02/22-rdf-syntax-ns#"
   xmlns:svg="http://www.w3.org/2000/svg"
   xmlns="http://www.w3.org/2000/svg"
   xmlns:sodipodi="http://sodipodi.sourceforge.net/DTD/sodipodi-0.dtd"
   xmlns:inkscape="http://www.inkscape.org/namespaces/inkscape"
   width="248.53992mm"
   height="103.05079mm"
   viewBox="0 0 880.65325 365.14059"
   id="svg2"
   version="1.1"
   inkscape:version="0.91 r13725"
   sodipodi:docname="smc56.svg">
  <defs
     id="defs4" />
  <sodipodi:namedview
     id="base"
     pagecolor="#ffffff"
     bordercolor="#666666"
     borderopacity="1.0"
     inkscape:pageopacity="0.0"
     inkscape:pageshadow="2"
     inkscape:zoom="0.7"
     inkscape:cx="62.514244"
     inkscape:cy="170.50233"
     inkscape:document-units="px"
     inkscape:current-layer="layer1"
     showgrid="false"
     showguides="false"
     inkscape:guide-bbox="true"
     inkscape:window-width="1920"
     inkscape:window-height="1137"
     inkscape:window-x="-8"
     inkscape:window-y="-8"
     inkscape:window-maximized="1"
     fit-margin-top="0"
     fit-margin-left="0"
     fit-margin-right="0"
     fit-margin-bottom="0">
    <sodipodi:guide
       position="597.12731,56.91763"
       orientation="1,0"
       id="guide4301" />
  </sodipodi:namedview>
  <metadata
     id="metadata7">
    <rdf:RDF>
      <cc:Work
         rdf:about="">
        <dc:format>image/svg+xml</dc:format>
        <dc:type
           rdf:resource="http://purl.org/dc/dcmitype/StillImage" />
        <dc:title></dc:title>
      </cc:Work>
    </rdf:RDF>
  </metadata>
  <g
     inkscape:label="Vrstva 1"
     inkscape:groupmode="layer"
     id="layer1"
     transform="translate(-37.872691,-500.56781)">
    <rect
       style="fill:#ae4a84;fill-opacity:1;stroke:none;stroke-width:0.5;stroke-miterlimit:4;stroke-dasharray:1.5, 0.5;stroke-dashoffset:0;stroke-opacity:1"
       id="rect4147-3"
       width="139.36143"
       height="74.290047"
       x="239.31392"
       y="662.47351"
       transform="matrix(0.97559398,0.2195823,-0.26548616,0.96411467,0,0)" />
    <path
       style="fill:#1e652e;fill-opacity:1;fill-rule:evenodd;stroke:#000000;stroke-width:4.5;stroke-linecap:butt;stroke-linejoin:miter;stroke-miterlimit:4;stroke-dasharray:none;stroke-opacity:1"
       d="m 752.14286,600.93364 c 0.7143,-30 32.1429,-30.71429 32.1429,-30.71429 0,0 49.2857,-5 87.1428,15.71429 37.8572,20.71428 50.7143,35.71428 37.8572,73.57143 -12.8572,37.85714 -57.8572,23.57143 -57.8572,23.57143 0,0 -27.1428,2.85714 -57.1428,-16.42858 -30,-19.28571 -42.1429,-65.71428 -42.1429,-65.71428 z"
       id="path4234"
       inkscape:connector-curvature="0"
       sodipodi:nodetypes="ccsscsc" />
    <path
       style="fill:#393185;fill-opacity:1;fill-rule:evenodd;stroke:#000000;stroke-width:4.5;stroke-linecap:butt;stroke-linejoin:miter;stroke-miterlimit:4;stroke-dasharray:none;stroke-opacity:1"
       d="M 682.85715,798.79078 C 700,750.21934 747.14286,738.07649 761.42858,724.50506 c 14.28571,-13.57143 42.14285,-48.57143 67.85714,-56.42857 25.7143,-7.85714 56.4286,-4.28571 70,14.28571 13.5714,18.57143 25.7143,40.71429 8.5714,70.71429 -17.1428,30 -58.5714,51.42857 -87.8571,56.42857 -29.28573,5 -44.28573,4.28572 -64.28573,24.28572 -20,20 -41.35293,40.24982 -64.28572,23.57143 -15.71428,-11.42858 -8.57142,-58.57143 -8.57142,-58.57143 z"
       id="path4232"
       inkscape:connector-curvature="0"
       sodipodi:nodetypes="csssssssc" />
    <rect
       style="fill:#ef7f1a;fill-opacity:1;stroke:none;stroke-width:0.5;stroke-miterlimit:4;stroke-dasharray:1.5, 0.5;stroke-dashoffset:0;stroke-opacity:1"
       id="rect4147"
       width="139.36143"
       height="74.290047"
       x="-6.4748096"
       y="658.67096"
       transform="matrix(0.99075821,-0.13563988,0.08862103,0.99606542,0,0)" />
    <path
       style="fill:none;fill-opacity:1;fill-rule:evenodd;stroke:#ef7f1a;stroke-width:9.80000019;stroke-linecap:butt;stroke-linejoin:miter;stroke-miterlimit:4;stroke-dasharray:none;stroke-opacity:1"
       d="m 187.85715,702.3622 c 0,0 20.71428,-5.71428 19.99999,-29.28571 -0.71428,-23.57143 0.60328,-31.58334 11.42858,-34.28572 15.17333,-3.7878 20.00001,45.00001 37.85714,40.71429 22.62397,-5.42977 15.29146,-54.10432 32.14285,-59.28571 30.1413,-9.26771 27.58573,45.11597 47.85715,43.57143 20.27143,-1.54454 15,-59.28572 38.57142,-60.71429 21.44867,-1.29992 16.04586,60.92883 38.57144,57.85715 15.71428,-2.14287 7.08328,-48.92114 27.14285,-51.42858 28.57143,-3.57142 26.28691,70.65053 44.28572,62.85715 21.77813,-9.42981 11.33969,-49.27649 30,-50.71429 16.0601,-1.23745 20,74.28571 44.99999,65 16.53764,-6.14255 30.00001,-30.71429 30.00001,-30.71429"
       id="path4164"
       inkscape:connector-curvature="0"
       sodipodi:nodetypes="csssszssssssc" />
    <path
       style="fill:none;fill-opacity:1;fill-rule:evenodd;stroke:#ae4a84;stroke-width:9.65092182;stroke-linecap:butt;stroke-linejoin:miter;stroke-miterlimit:4;stroke-dasharray:none;stroke-opacity:1"
       d="m 596.52832,745.40276 c 0,0 -32.64159,9.88575 -31.93473,32.98587 0.70685,23.10013 -0.597,30.95184 -11.30965,33.60019 -15.01544,3.71206 -19.79189,-44.10025 -37.4632,-39.90022 -22.38854,5.3212 -17.98948,45.87965 -34.66551,50.95744 -29.82765,9.08241 -28.72724,-43.49959 -48.78771,-41.98593 -20.06049,1.51365 -15.5582,51.67174 -38.88434,53.07175 -21.22547,1.27392 -11.59317,-61.13914 -33.88435,-58.12888 -15.55076,2.10002 -10.58099,45.08582 -30.43182,47.54312 -28.27411,3.50001 -21.72766,-71.38073 -39.53917,-63.74318 -21.5515,9.24126 -14.07883,44.0055 -32.54496,45.41455 -15.89298,1.21271 -18.36331,-73.51466 -43.10314,-64.41462 -16.36555,6.01973 -42.54497,44.38587 -42.54497,44.38587"
       id="path4164-1"
       inkscape:connector-curvature="0"
       sodipodi:nodetypes="csssszssssssc" />
    <path
       style="fill:none;fill-opacity:1;fill-rule:evenodd;stroke:#ef7f1a;stroke-width:9.80000019;stroke-linecap:butt;stroke-linejoin:miter;stroke-miterlimit:4;stroke-dasharray:none;stroke-opacity:1"
       d="m 592.21142,684.24476 c 0,0 -26.42857,5.71429 -25.71428,-17.85714 0.71428,-23.57143 -0.60328,-31.58334 -11.42858,-34.28572 -15.17333,-3.7878 -23.57144,49.28572 -41.42857,45 -22.62397,-5.42977 -11.72003,-58.39003 -28.57142,-63.57142 -30.1413,-9.26771 -15.44287,53.6874 -35.71429,52.14286 -20.27143,-1.54454 -17.14286,-60.71429 -40.71428,-62.14286 -21.44867,-1.29992 -13.903,60.92883 -36.42858,57.85715 -15.71428,-2.14287 -15.65471,-48.20686 -35.71428,-50.7143 -28.57143,-3.57142 -22.71548,69.93625 -40.71429,62.14287 -21.77813,-9.42981 -25.62541,-42.13364 -44.28572,-43.57144 -16.0601,-1.23745 -4.28571,76.42857 -29.2857,67.14286 -16.53764,-6.14255 -38.57144,-47.14286 -38.57144,-47.14286"
       id="path4164-7"
       inkscape:connector-curvature="0"
       sodipodi:nodetypes="csssszssssssc" />
    <path
       style="fill:none;fill-opacity:1;fill-rule:evenodd;stroke:#ae4a84;stroke-width:9.65092182;stroke-linecap:butt;stroke-linejoin:miter;stroke-miterlimit:4;stroke-dasharray:none;stroke-opacity:1"
       d="m 171.79195,740.00444 c 0,0 28.35587,-5.11425 33.3633,12.98587 6.16221,22.27426 -2.44461,33.2888 8.45251,35.02876 14.30115,2.28349 22.64903,-45.52882 40.32034,-41.32879 22.38854,5.3212 19.41805,59.45108 36.09408,64.52887 29.82765,9.08241 18.01296,-42.07102 38.07343,-40.55736 20.06049,1.51365 8.41534,60.24317 31.74148,61.64318 21.22547,1.27392 17.30745,-56.85343 39.59863,-53.84317 15.55076,2.10002 15.58099,52.94297 35.43182,55.40027 28.27411,3.50001 23.15624,-67.09502 40.96775,-59.45747 21.5515,9.24126 24.79311,44.71979 43.25924,46.12884 15.89298,1.21271 6.93474,-74.22895 31.67457,-65.12891 16.36555,6.01973 41.83069,53.67159 41.83069,53.67159"
       id="path4164-1-0"
       inkscape:connector-curvature="0"
       sodipodi:nodetypes="csssszssssssc" />
    <path
       style="fill:#ffed00;fill-opacity:1;fill-rule:evenodd;stroke:#000000;stroke-width:4.5;stroke-linecap:butt;stroke-linejoin:miter;stroke-miterlimit:4;stroke-dasharray:none;stroke-opacity:1"
       d="M 691.42858,778.79077 C 654.28572,670.21934 673.57144,622.3622 673.57144,622.3622 c 0,0 7.14286,-16.42858 25.71429,-32.14286 11.50261,-9.73297 48.40107,-14.82549 59.28571,-2.85714 10.88464,11.96835 30.67732,42.38682 22.85714,92.85714 -3.65042,23.55933 -22.14286,42.14286 -50.71428,66.42857 -28.57143,24.28572 -39.28572,32.14286 -39.28572,32.14286 z"
       id="path4230"
       inkscape:connector-curvature="0"
       sodipodi:nodetypes="ccszssc" />
    <ellipse
       style="fill:#ae4a84;fill-opacity:1;stroke:#000000;stroke-width:4.5;stroke-miterlimit:4;stroke-dasharray:none;stroke-dashoffset:0;stroke-opacity:1"
       id="path4213"
       cx="635.35718"
       cy="785.57648"
       rx="54.642857"
       ry="72.5" />
    <ellipse
       style="fill:#ef7e1a;fill-opacity:1;stroke:#000000;stroke-width:4.5;stroke-miterlimit:4;stroke-dasharray:none;stroke-dashoffset:0;stroke-opacity:1"
       id="path4213-7"
       cx="639.28571"
       cy="659.50507"
       rx="54.642857"
       ry="72.5" />
    <path
       style="fill:#5b5b5b;fill-opacity:1;fill-rule:evenodd;stroke:none;stroke-width:1px;stroke-linecap:butt;stroke-linejoin:miter;stroke-opacity:1"
       d="m 372.68755,551.14285 c -47.77049,17.90419 -49.07278,29.74746 -49.78707,37.6046 -0.71428,7.85715 9.13047,27.81247 22.14286,28.57143 12.95074,0.75536 30.9137,11.40077 52.14285,6.42857 23.31622,-5.46103 36.00268,-28.0844 39.28572,-34.28571 3.28304,-6.20131 16.63778,-29.83784 10.20921,-51.26641 -5.06927,-16.89755 -9.34566,-33.62314 -27.35208,-37.30502 -14.63851,-2.99322 -26.99927,15.6425 -29.49863,23.10968 -6.98423,20.86634 -14.28572,25.62763 -17.14286,27.14286 z"
       id="path4236"
       inkscape:connector-curvature="0"
       sodipodi:nodetypes="cssszsssc" />
    <path
       style="fill:none;fill-rule:evenodd;stroke:#000000;stroke-width:4.5;stroke-linecap:butt;stroke-linejoin:miter;stroke-miterlimit:4;stroke-dasharray:none;stroke-opacity:1"
       d="m 584.87832,658.40271 109.09648,0"
       id="path4238"
       inkscape:connector-curvature="0"
       sodipodi:nodetypes="cc" />
    <path
       style="fill:none;fill-rule:evenodd;stroke:#000000;stroke-width:4.5;stroke-linecap:butt;stroke-linejoin:miter;stroke-miterlimit:4;stroke-dasharray:none;stroke-opacity:1"
       d="m 579.73747,784.50506 109.09648,0"
       id="path4238-6"
       inkscape:connector-curvature="0"
       sodipodi:nodetypes="cc" />
    <text
       xml:space="preserve"
       style="font-style:normal;font-variant:normal;font-weight:bold;font-stretch:normal;font-size:50px;line-height:123.00000191%;font-family:Calibri;-inkscape-font-specification:'Calibri Bold';text-align:center;letter-spacing:0px;word-spacing:0px;text-anchor:middle;fill:#000000;fill-opacity:1;stroke:none;stroke-width:1px;stroke-linecap:butt;stroke-linejoin:miter;stroke-opacity:1"
       x="634.99994"
       y="644.50513"
       id="text4261"
       sodipodi:linespacing="123%"><tspan
         sodipodi:role="line"
         id="tspan4263"
         x="634.99994"
         y="644.50513">C</tspan></text>
    <text
       xml:space="preserve"
       style="font-style:normal;font-variant:normal;font-weight:bold;font-stretch:normal;font-size:50px;line-height:123.00000191%;font-family:Calibri;-inkscape-font-specification:'Calibri Bold';text-align:center;letter-spacing:0px;word-spacing:0px;text-anchor:middle;fill:#000000;fill-opacity:1;stroke:none;stroke-width:1px;stroke-linecap:butt;stroke-linejoin:miter;stroke-opacity:1"
       x="635"
       y="705.93365"
       id="text4265"
       sodipodi:linespacing="123%"><tspan
         sodipodi:role="line"
         id="tspan4267"
         x="635"
         y="705.93365">N</tspan></text>
    <text
       xml:space="preserve"
       style="font-style:normal;font-variant:normal;font-weight:bold;font-stretch:normal;font-size:50px;line-height:123.00000191%;font-family:Calibri;-inkscape-font-specification:'Calibri Bold';text-align:center;letter-spacing:0px;word-spacing:0px;text-anchor:middle;fill:#000000;fill-opacity:1;stroke:none;stroke-width:1px;stroke-linecap:butt;stroke-linejoin:miter;stroke-opacity:1"
       x="-654.89325"
       y="744.12286"
       id="text4277"
       sodipodi:linespacing="123%"
       transform="matrix(0,-1,1,0,0,0)"><tspan
         sodipodi:role="line"
         id="tspan4279"
         x="-654.89325"
         y="744.12286">NSE4</tspan></text>
    <text
       xml:space="preserve"
       style="font-style:normal;font-variant:normal;font-weight:bold;font-stretch:normal;font-size:50px;line-height:123.00000191%;font-family:Calibri;-inkscape-font-specification:'Calibri Bold';text-align:center;letter-spacing:0px;word-spacing:0px;text-anchor:middle;fill:#ffffff;fill-opacity:1;stroke:none;stroke-width:1px;stroke-linecap:butt;stroke-linejoin:miter;stroke-opacity:1"
       x="277.87579"
       y="1085.608"
       id="text4281"
       sodipodi:linespacing="123%"
       transform="matrix(0.83649373,-0.54797649,0.54797649,0.83649373,0,0)"><tspan
         sodipodi:role="line"
         id="tspan4283"
         x="277.87579"
         y="1085.608">NSE3</tspan></text>
    <text
       xml:space="preserve"
       style="font-style:normal;font-variant:normal;font-weight:bold;font-stretch:normal;font-size:50px;line-height:123.00000191%;font-family:Calibri;-inkscape-font-specification:'Calibri Bold';text-align:center;letter-spacing:0px;word-spacing:0px;text-anchor:middle;fill:#ffffff;fill-opacity:1;stroke:none;stroke-width:1px;stroke-linecap:butt;stroke-linejoin:miter;stroke-opacity:1"
       x="1023.5052"
       y="232.24136"
       id="text4285"
       sodipodi:linespacing="123%"
       transform="matrix(0.90893141,0.41694568,-0.41694568,0.90893141,0,0)"><tspan
         sodipodi:role="line"
         id="tspan4287"
         x="1023.5052"
         y="232.24136">NSE1</tspan></text>
    <text
       xml:space="preserve"
       style="font-style:normal;font-variant:normal;font-weight:bold;font-stretch:normal;font-size:50px;line-height:123.00000191%;font-family:Calibri;-inkscape-font-specification:'Calibri Bold';text-align:center;letter-spacing:0px;word-spacing:0px;text-anchor:middle;fill:#ffffff;fill-opacity:1;stroke:none;stroke-width:1px;stroke-linecap:butt;stroke-linejoin:miter;stroke-opacity:1"
       x="21.503044"
       y="706.81818"
       id="text4289"
       sodipodi:linespacing="123%"
       transform="matrix(0.84139153,-0.54042602,0.54042602,0.84139153,0,0)"><tspan
         sodipodi:role="line"
         id="tspan4291"
         x="21.503044"
         y="706.81818">NSE2</tspan></text>
    <text
       xml:space="preserve"
       style="font-style:normal;font-variant:normal;font-weight:bold;font-stretch:normal;font-size:50px;line-height:123.00000191%;font-family:Calibri;-inkscape-font-specification:'Calibri Bold';text-align:center;letter-spacing:0px;word-spacing:0px;text-anchor:middle;fill:#000000;fill-opacity:1;stroke:none;stroke-width:1px;stroke-linecap:butt;stroke-linejoin:miter;stroke-opacity:1"
       x="165.71428"
       y="619.50507"
       id="text4293"
       sodipodi:linespacing="123%"><tspan
         sodipodi:role="line"
         id="tspan4295"
         x="165.71428"
         y="619.50507">SMC5</tspan></text>
    <text
       xml:space="preserve"
       style="font-style:normal;font-variant:normal;font-weight:bold;font-stretch:normal;font-size:50px;line-height:123.00000191%;font-family:Calibri;-inkscape-font-specification:'Calibri Bold';text-align:center;letter-spacing:0px;word-spacing:0px;text-anchor:middle;fill:#000000;fill-opacity:1;stroke:none;stroke-width:1px;stroke-linecap:butt;stroke-linejoin:miter;stroke-opacity:1"
       x="165.71428"
       y="844.50507"
       id="text4297"
       sodipodi:linespacing="123%"><tspan
         sodipodi:role="line"
         id="tspan4299"
         x="165.71428"
         y="844.50507">SMC6</tspan></text>
    <text
       xml:space="preserve"
       style="font-style:normal;font-variant:normal;font-weight:bold;font-stretch:normal;font-size:50px;line-height:123.00000191%;font-family:Calibri;-inkscape-font-specification:'Calibri Bold';text-align:center;letter-spacing:0px;word-spacing:0px;text-anchor:middle;fill:#000000;fill-opacity:1;stroke:none;stroke-width:1px;stroke-linecap:butt;stroke-linejoin:miter;stroke-opacity:1"
       x="635.70203"
       y="774.05554"
       id="text4261-2"
       sodipodi:linespacing="123%"><tspan
         sodipodi:role="line"
         id="tspan4263-2"
         x="635.70203"
         y="774.05554">C</tspan></text>
    <text
       xml:space="preserve"
       style="font-style:normal;font-variant:normal;font-weight:bold;font-stretch:normal;font-size:50px;line-height:123.00000191%;font-family:Calibri;-inkscape-font-specification:'Calibri Bold';text-align:center;letter-spacing:0px;word-spacing:0px;text-anchor:middle;fill:#000000;fill-opacity:1;stroke:none;stroke-width:1px;stroke-linecap:butt;stroke-linejoin:miter;stroke-opacity:1"
       x="635.70209"
       y="835.48407"
       id="text4265-1"
       sodipodi:linespacing="123%"><tspan
         sodipodi:role="line"
         id="tspan4267-0"
         x="635.70209"
         y="835.48407">N</tspan></text>
  </g>
</svg>
